<?xml version="1.0" encoding="UTF-8" standalone="no"?>
<!-- Created with Inkscape (http://www.inkscape.org/) -->

<svg
   xmlns:dc="http://purl.org/dc/elements/1.1/"
   xmlns:cc="http://creativecommons.org/ns#"
   xmlns:rdf="http://www.w3.org/1999/02/22-rdf-syntax-ns#"
   xmlns:svg="http://www.w3.org/2000/svg"
   xmlns="http://www.w3.org/2000/svg"
   xmlns:sodipodi="http://sodipodi.sourceforge.net/DTD/sodipodi-0.dtd"
   xmlns:inkscape="http://www.inkscape.org/namespaces/inkscape"
   id="svg2"
   version="1.1"
   inkscape:version="0.91 r13725"
   width="631.55914"
   height="233.69417"
   viewBox="0 0 631.55914 233.69417"
   sodipodi:docname="optical.svg">
  <metadata
     id="metadata8">
    <rdf:RDF>
      <cc:Work
         rdf:about="">
        <dc:format>image/svg+xml</dc:format>
        <dc:type
           rdf:resource="http://purl.org/dc/dcmitype/StillImage" />
        <dc:title></dc:title>
      </cc:Work>
    </rdf:RDF>
  </metadata>
  <defs
     id="defs6" />
  <sodipodi:namedview
     pagecolor="#ffffff"
     bordercolor="#666666"
     borderopacity="1"
     objecttolerance="10"
     gridtolerance="10"
     guidetolerance="10"
     inkscape:pageopacity="0"
     inkscape:pageshadow="2"
     inkscape:window-width="1366"
     inkscape:window-height="715"
     id="namedview4"
     showgrid="false"
     fit-margin-top="0"
     fit-margin-left="0"
     fit-margin-right="0"
     fit-margin-bottom="0"
     inkscape:zoom="1.442462"
     inkscape:cx="315.77956"
     inkscape:cy="116.84709"
     inkscape:window-x="-8"
     inkscape:window-y="-8"
     inkscape:window-maximized="1"
     inkscape:current-layer="svg2" />
  <path
     style="fill:#000000"
     d="m 135.27578,232.28725 c -6.53125,-0.53336 -13.84375,-1.12363 -16.25,-1.3117 -2.40625,-0.18807 -5.78125,-1.23586 -7.5,-2.32842 -1.71875,-1.09256 -5.23437,-2.65529 -7.8125,-3.47273 -2.57812,-0.81743 -4.6875,-2.03676 -4.6875,-2.7096 0,-0.67284 -2.52402,-2.33985 -5.60894,-3.70445 -3.08492,-1.36461 -11.08091,-7.02941 -17.76888,-12.58847 -6.68797,-5.55905 -13.63431,-10.62134 -15.43632,-11.24951 -4.67352,-1.6292 -16.59842,-17.8594 -17.75513,-24.16534 -0.37832,-2.0625 -2.68659,-9.09375 -5.12947,-15.625 -2.44288,-6.53125 -5.54979,-15.8125 -6.90425,-20.625 C 20.28274,98.478609 18.5004,95.043349 7.1623,89.675009 L 0,86.283819 0.86131,79.390109 C 1.33503,75.598569 1.89426,69.008939 2.10405,64.74648 2.74943,51.63337 7.65601,43.88204 15.3112,43.88204 c 4.95762,0 16.9368,-4.4183 29.35418,-10.82675 39.02799,-20.141863 42.75858,-21.722762 57.20546,-24.241759 5.73115,-0.999299 9.01174,-2.250219 10.1452,-3.868456 2.79854,-3.99548601 9.07948,-4.89388701 34.56184,-4.94359401 17.66666,-0.03446 27.52621,0.529149 35.625,2.03646001 32.88154,6.119775 55.7,18.387509 82.03579,44.104329 12.03049,11.74775 13.86837,13.08285 18.75,13.62065 4.44416,0.48961 6.30636,-0.0175 10.41211,-2.83548 9.1686,-6.29282 15.39974,-8.35606 25.53901,-8.45643 6.65575,-0.0659 10.64714,0.53711 13.46142,2.03369 2.20023,1.17003 5.03492,2.12734 6.29931,2.12734 1.26438,0 6.20259,2.03539 10.97378,4.5231 8.0262,4.18486 9.2377,4.46535 16.2007,3.75084 6.93915,-0.71207 7.91554,-1.2089 12.52579,-6.37368 2.75,-3.08078 6.54687,-6.16098 8.4375,-6.8449 3.52339,-1.27456 4.40492,-3.05992 2.1875,-4.43036 -1.86716,-1.15398 -1.50798,-3.125 0.56949,-3.125 3.50946,0 16.93051,-10.13411 16.93051,-12.78407 0,-3.03501 1.55911,-3.57366 3.9862,-1.37718 2.17293,1.96647 2.53314,1.93226 5.90535,-0.56092 8.80371,-6.50887 20.52711,-11.634317 27.63319,-12.081182 3.91479,-0.246181 8.92677,-1.383065 11.13776,-2.526409 2.61793,-1.353782 5.3139,-1.794615 7.72994,-1.263963 2.04047,0.448165 4.39574,0.245698 5.23391,-0.449925 1.75256,-1.454492 16.74816,-1.985159 27.74865,-0.981975 25.95854,2.367277 28.30834,2.808817 49.37375,9.277564 14.49148,4.45004 25.02623,8.97697 29.07236,12.49282 1.20785,1.04955 3.30148,2.52072 4.6525,3.26926 1.35101,0.74854 7.2068,4.32912 13.01285,7.95685 5.80605,3.62772 15.17224,8.1953 20.81374,10.15016 13.41161,4.64732 15.61954,7.3728 17.38611,21.461539 2.1867,17.43924 1.83699,21.82435 -1.97988,24.8267 -1.81147,1.4249 -4.59534,2.590731 -6.18639,2.590731 -7.09423,0 -16.7181,22.8822 -16.78845,39.91706 -0.03,7.25119 -4.03248,17.53894 -10.9745,28.20793 -3.57872,5.5 -6.5243,11.125 -6.54575,12.5 -0.0221,1.4221 -5.41685,8.159 -12.51193,15.625 -6.86011,7.21875 -12.75909,14.0221 -13.10885,15.11856 -0.34976,1.09645 -6.95384,5.11084 -14.67574,8.92086 -20.8618,10.2933 -27.21671,11.94803 -49.8156,12.97125 -14.22392,0.64403 -18.593,0.36185 -29.22422,-1.88747 -17.94619,-3.79701 -25.37945,-6.59581 -37.46004,-14.1046 -5.87874,-3.65399 -11.6883,-7.2061 -12.91015,-7.8936 -8.50232,-4.78403 -25.25481,-23.03186 -25.25481,-27.5091 0,-0.9752 -2.18848,-3.90334 -4.86328,-6.50699 -2.6748,-2.60365 -6.37157,-7.6518 -8.21505,-11.2181 -1.84348,-3.5663 -4.15501,-7.1508 -5.13672,-7.96555 -0.98173,-0.81476 -1.78495,-2.28796 -1.78495,-3.27379 0,-0.98581 -1.70465,-3.34936 -3.78811,-5.25231 -2.41129,-2.20237 -5.6221,-7.96941 -8.83401,-15.86703 -8.30494,-20.42068 -9.63191,-22.63348 -17.16683,-28.62703 -7.39602,-5.883061 -9.84616,-6.607321 -14.29598,-4.225841 -2.01312,1.077381 -2.7897,1.071891 -3.15444,-0.0223 -1.2669,-3.8007 -4.40614,-5.15659 -11.91243,-5.14519 -9.58501,0.0146 -19.14957,4.89127 -22.40738,11.424931 -6.93569,13.90972 -19.69083,45.38101 -19.69083,48.58397 0,1.28248 -0.60085,2.70313 -1.33521,3.15699 -0.73438,0.45388 -1.03857,1.59829 -0.67599,2.54315 0.8279,2.15746 -2.2033,9.57118 -4.79158,11.71925 -1.07097,0.88883 -1.94722,2.46064 -1.94722,3.4929 0,1.03228 -2.66756,4.19778 -5.92791,7.03445 -5.53688,4.81738 -19.70682,17.40588 -24.17695,21.4787 -1.08893,0.99214 -2.82987,1.80389 -3.86877,1.80389 -1.03889,0 -2.96046,1.1858 -4.27013,2.63511 -1.30969,1.4493 -4.91249,3.98558 -8.00624,5.63615 -5.14625,2.74561 -7.00511,3.78019 -12.5,6.95699 -1.03125,0.5962 -4.24233,2.21101 -7.13573,3.58846 -2.8934,1.37746 -5.62968,3.10148 -6.08065,3.83114 -0.47867,0.77451 -2.54065,1.00386 -4.9543,0.55105 -2.27389,-0.42659 -4.44161,-0.27848 -4.81713,0.32912 -1.8497,2.99289 -28.07545,5.07159 -45.76219,3.6272 z m 367.61376,-14.79587 c 22.4188,-2.96603 40.91619,-11.32533 55.47911,-25.07201 5.32218,-5.02388 11.70837,-10.27395 14.19153,-11.66684 3.32192,-1.86339 5.71195,-4.87143 9.0456,-11.38465 2.49192,-4.86866 4.89267,-10.66166 5.33501,-12.87334 0.72043,-3.60212 0.5453,-3.93904 -1.68037,-3.23264 -2.99152,0.94948 -2.97491,1.23702 -0.44798,-7.75638 3.04869,-10.85033 4.36965,-30.37782 3.08511,-45.606481 -1.06207,-12.5914 -1.52104,-14.17197 -7.99742,-27.54145 -5.95716,-12.297609 -8.05369,-15.299439 -15.76809,-22.576809 -10.6966,-10.09062 -16.1216,-13.64091 -27.23716,-17.8248 -14.22619,-5.35472 -28.55459,-7.22365 -49.11909,-6.40686 -14.15856,0.56235 -20.52268,1.41613 -29.08139,3.9014 -6.02601,1.74983 -11.56812,3.18151 -12.31581,3.18151 -2.7088,0 -22.62847,10.00527 -27.73936,13.93294 -2.88114,2.21414 -8.98371,7.882 -13.56128,12.59525 -6.79236,6.993719 -9.30278,10.801709 -13.65191,20.708189 -4.85987,11.0699 -5.37924,13.25743 -5.89884,24.845991 -0.59928,13.36572 1.28929,30.5208 4.0871,37.1258 0.91253,2.15425 2.6594,6.44808 3.88194,9.54183 6.49203,16.4286 30.49323,44.90789 43.25559,51.32612 2.96943,1.49334 6.24271,3.41782 7.27396,4.27663 1.03125,0.85881 3.46861,1.94072 5.41636,2.40425 1.94774,0.46351 5.85696,2.30454 8.68714,4.09116 4.27455,2.6984 7.27284,3.39931 17.70865,4.13975 6.90956,0.49025 13.45779,0.97478 14.5516,1.07673 1.0938,0.102 6.7188,-0.44043 12.5,-1.20529 z m -341.02797,-4.20053 c 6.90174,-0.2163 12.31781,0.19655 13.67186,1.04218 1.6797,1.04899 2.86539,1.01127 4.72539,-0.15031 1.36567,-0.85288 3.38826,-1.55069 4.49464,-1.55069 1.10637,0 3.50463,-0.8399 5.32946,-1.86644 1.82482,-1.02654 4.72411,-2.3723 6.44286,-2.99059 4.654,-1.67417 25.02394,-17.23217 29.6875,-22.6745 2.23438,-2.60748 4.0625,-5.70766 4.0625,-6.88928 0,-1.18163 2.72406,-5.87345 6.05348,-10.4263 3.32941,-4.55284 7.3104,-11.09039 8.84665,-14.52789 1.53625,-3.4375 3.56933,-7.70225 4.51798,-9.47723 0.94864,-1.77497 2.3114,-5.57185 3.02835,-8.4375 0.71694,-2.86564 1.9141,-7.60089 2.66034,-10.52276 0.79109,-3.09749 1.13554,-12.08782 0.82614,-21.5625 C 255.78988,90.431499 255.07013,85.294809 252.7933,78.882039 246.30966,60.62065 229.74351,43.01186 209.31304,32.66522 171.17995,13.353403 115.22425,14.796393 83.2714,35.91559 c -3.50866,2.31905 -6.88366,4.22197 -7.5,4.22872 -0.61634,0.007 -3.08937,2.32551 -5.49562,5.1528 -2.40625,2.82729 -6.23156,7.2808 -8.5007,9.89668 -8.51481,9.81599 -13.79138,24.397319 -15.87358,43.865259 -0.78085,7.300761 -0.60831,8.477861 1.43067,9.760051 1.63203,1.02629 1.85593,1.65248 0.75611,2.11466 -2.2168,0.93158 -1.93569,5.46406 0.50624,8.16236 1.23775,1.3677 1.4888,2.28592 0.625,2.28592 -2.23894,0 -1.72005,7.9502 1.12512,17.23862 3.38686,11.05685 4.05256,12.1247 7.60641,12.20134 4.15782,0.0896 6.47058,1.68272 5.05779,3.48382 -3.91625,4.99265 -2.24144,11.80129 5.19977,21.13871 3.96815,4.97934 5.81717,5.8733 5.81717,2.8125 0,-1.03125 -0.77487,-1.875 -1.72194,-1.875 -2.08189,0 -3.92331,-2.15044 -5.0843,-5.9375 -1.34189,-4.37714 2.87228,-3.5883 8.04568,1.50606 13.01222,12.81341 16.01492,15.35159 20.01056,16.91483 6.06182,2.3716 9.17653,4.60546 7.6967,5.52005 -0.6803,0.42045 -2.63253,0.23383 -4.33828,-0.41469 -3.24793,-1.23486 -4.60842,-0.69319 -4.60842,1.83482 0,0.8288 2.30677,1.87578 5.12616,2.32662 3.63998,0.58205 5.31306,1.53437 5.77079,3.28476 0.35455,1.35577 1.67083,2.46505 2.92507,2.46505 1.25424,0 2.65837,0.6115 3.12028,1.3589 0.46192,0.74739 2.01796,1.05081 3.45788,0.67426 1.64088,-0.4291 4.0376,0.39519 6.42142,2.20846 3.80654,2.89549 9.08652,4.4627 16.50891,4.90022 2.17553,0.12824 4.39841,0.6748 4.93975,1.21457 0.54133,0.53979 2.59339,0.62799 4.56013,0.19603 1.96674,-0.43198 8.71917,-0.94659 15.0054,-1.14362 z"
     id="path3338"
     inkscape:connector-curvature="0"
     sodipodi:nodetypes="sssssssssssscsssssssssssssssssssssssssssssssssssssscssssssssssssssssssssssssssssssscsssssssssssssssssssssssssssscscsssssssssssssssscsssssssscssssssssssssscssscsc" />
</svg>
